<?xml version="1.0" encoding="utf-8"?>
<!-- Generator: Adobe Illustrator 19.0.0, SVG Export Plug-In . SVG Version: 6.00 Build 0)  -->
<svg version="1.1" id="Layer_1" xmlns="http://www.w3.org/2000/svg" xmlns:xlink="http://www.w3.org/1999/xlink" x="0px" y="0px"
	 viewBox="0 0 500 500" style="enable-background:new 0 0 500 500;" xml:space="preserve">
<style type="text/css">
	.st0{fill:#F79A10;}
	.st1{fill:#666666;}
</style>
<g id="XMLID_1_">
	<path id="XMLID_3_" class="st0" d="M398.6,195.4c-3.1-1.3-6-1.4-9.5-1.4l-59.4,0.3c-12.3-0.6-24.3,2.4-34.8,8.4l0,0
		c-1.9,1-3.1,3-3.1,5.3c0,3.3,2.7,6,6,6c1.7,0,3.3-0.7,4.4-1.9c13.1-7,29-8.3,43.7-2.3c26.2,10.7,38.7,40.8,28,67
		c-2.9,7-7.2,13-12.4,17.9l0,0.1c-1.8,1-3,3-3,5.2c0,3.3,2.7,6,6,6c2.1,0,4-1.1,5.1-2.8c6.4-6,11.6-13.4,15.1-21.9
		c0.2-0.6,24.6-59.8,24.6-60C413.5,211.1,408.7,199.6,398.6,195.4z"/>
	<path id="XMLID_4_" class="st1" d="M80.5,265.3c0.1,6,5.1,8.4,10.5,8.4c3.9,0,8.9-1.5,8.9-6.3c0-4.1-5.7-5.6-15.5-7.7
		c-7.9-1.7-15.8-4.5-15.8-13.3c0-12.7,11-15.9,21.6-15.9c10.9,0,20.8,3.6,21.9,15.8h-13c-0.4-5.3-4.4-6.7-9.3-6.7
		c-3.1,0-7.6,0.6-7.6,4.6c0,4.9,7.7,5.6,15.5,7.4c8,1.8,15.8,4.7,15.8,13.9c0,13.1-11.3,17.3-22.7,17.3c-11.5,0-22.8-4.3-23.3-17.5
		L80.5,265.3L80.5,265.3z"/>
	<path id="XMLID_7_" class="st1" d="M141.8,230.4c15.7,0,25.7,10.4,25.7,26.2c0,15.8-10.1,26.1-25.7,26.1
		c-15.6,0-25.6-10.4-25.6-26.1C116.1,240.8,126.2,230.4,141.8,230.4z M141.8,272.5c9.3,0,12.1-8,12.1-15.9c0-8-2.8-15.9-12.1-15.9
		c-9.2,0-12,8-12,15.9C129.7,264.5,132.5,272.5,141.8,272.5z"/>
	<path id="XMLID_8_" class="st1" d="M217.4,281.4h-13v-6.9h-0.3c-3.5,5.6-9.4,8.3-15.2,8.3c-14.5,0-18.2-8.2-18.2-20.5v-30.5h13.6
		v28c0,8.2,2.4,12.2,8.7,12.2c7.4,0,10.6-4.1,10.6-14.2v-26h13.6V281.4z"/>
	<path id="XMLID_9_" class="st1" d="M221.5,231.7h13v9.2h0.2c2.5-6.2,9.2-10.6,15.9-10.6c1,0,2.1,0.2,3,0.5v12.7
		c-1.3-0.3-3.3-0.5-4.9-0.5c-10,0-13.4,7.2-13.4,15.9v22.4h-13.6V231.7z"/>
	<path id="XMLID_10_" class="st1" d="M287.1,249.2c-0.9-5.6-4.4-8.5-10.1-8.5c-8.7,0-11.6,8.8-11.6,16.1c0,7.1,2.8,15.7,11.3,15.7
		c6.3,0,10-4,10.9-10.1h13.2c-1.7,13.2-10.9,20.4-23.9,20.4c-15,0-25.1-10.6-25.1-25.5c0-15.5,9.2-26.9,25.4-26.9
		c11.7,0,22.5,6.1,23.3,18.8H287.1z"/>
	<path id="XMLID_13_" class="st1" d="M315.8,259.9c0.4,8.6,4.6,12.6,12.2,12.6c5.5,0,9.9-3.4,10.8-6.4h12
		c-3.8,11.7-12,16.7-23.2,16.7c-15.7,0-25.4-10.8-25.4-26.1c0-14.9,10.3-26.2,25.4-26.2c16.9,0,25.1,14.2,24.1,29.5L315.8,259.9
		L315.8,259.9z M338,251.2c-1.3-6.9-4.2-10.6-10.9-10.6c-8.6,0-11.1,6.7-11.3,10.6H338z"/>
	<polygon id="XMLID_14_" points="422.6,207.5 422.6,214 421.4,214 421.4,207.5 419.4,207.5 419.4,206.5 424.6,206.5 424.6,207.5 	
		"/>
	<polygon id="XMLID_15_" points="431.4,214 431.4,209 429.6,212.6 428.8,212.6 427,209 427,214 425.9,214 425.9,206.5 427,206.5 
		429.2,211.2 431.4,206.5 432.5,206.5 432.5,214 	"/>
</g>
</svg>
